<svg xmlns="http://www.w3.org/2000/svg" viewBox="0 0 30 30"><path fill="#303C42" d="M29.414 26.586L14.768 11.939l3.378-3.378C18.69 8.018 19 7.267 19 6.5s-.311-1.518-.854-2.06L14.561.853A2.95 2.95 0 0012.494 0a2.948 2.948 0 00-2.055.854L7.061 4.232l-.647-.646A2.001 2.001 0 003 5c0 .534.208 1.037.586 1.414l.646.647-4.086 4.085a.498.498 0 00-.143.407l.167 1.581a.5.5 0 00.445.445l1.177.123.123 1.176a.5.5 0 00.445.446l1.176.121.125 1.18a.5.5 0 00.444.444l1.183.127.129 1.186a.5.5 0 00.443.443l1.586.172a.495.495 0 00.407-.143l4.086-4.086 14.647 14.646c.378.378.88.586 1.414.586s1.036-.208 1.414-.586c.378-.377.586-.88.586-1.414s-.208-1.037-.586-1.414z"/></svg>