<svg xmlns="http://www.w3.org/2000/svg" width="100" height="100"><path style="line-height:normal;text-indent:0;text-align:start;text-decoration-line:none;text-decoration-style:solid;text-decoration-color:#000;text-transform:none;block-progression:tb;white-space:normal;isolation:auto;mix-blend-mode:normal;solid-color:#000;solid-opacity:1" d="M50.196 18.012a1.504 1.494 0 00-1.233.672c-2.738 3.971-11.418 7.347-21.347 7.406a1.504 1.494 0 00-.06 0 1.504 1.494 0 00-.194-.02 1.504 1.494 0 00-1.48 1.19s-1.5 6.75-2.253 14.913c-.751 8.164-.906 17.724 2.394 23.897 2.472 4.624 8.32 8.34 13.543 11.17 4.83 2.616 8.813 4.2 9.44 4.446a1.504 1.494 0 00.995.312 1.504 1.494 0 001.007-.32 1.504 1.494 0 00.006 0c.653-.256 4.616-1.828 9.428-4.435 5.222-2.829 11.063-6.545 13.535-11.17 3.3-6.172 3.145-15.732 2.394-23.896-.752-8.163-2.253-14.913-2.253-14.913a1.504 1.494 0 00-1.519-1.19 1.504 1.494 0 00-.125 0c-9.54-.038-17.923-3.235-20.847-7.094a1.504 1.494 0 00-1.433-.98zm-.027 3.893c4.193 4.423 12.24 6.91 21.226 7.128.301 1.423 1.347 6.511 1.983 13.422.733 7.953.58 17.29-2.057 22.222-1.81 3.384-7.289 7.22-12.321 9.947-4.556 2.468-8.258 3.95-8.999 4.244-.741-.294-4.443-1.776-8.999-4.244-5.032-2.726-10.511-6.563-12.32-9.947-2.638-4.933-2.79-14.27-2.058-22.222.636-6.907 1.681-11.991 1.983-13.418 9.142-.217 17.312-2.703 21.562-7.132z" color="#000" font-weight="400" font-family="sans-serif" overflow="visible"/></svg>